<svg width="63" height="30" viewBox="0 0 63 30" fill="none" xmlns="http://www.w3.org/2000/svg">
<path d="M59.4905 1.04285C60.9398 1.79725 61.503 3.58366 60.7486 5.03291C59.6248 7.19181 57.9529 9.17377 55.8244 10.9182L55.2313 11.3817L61.7109 17.8613C62.8662 19.0166 62.8663 20.8897 61.711 22.045C60.6445 23.1115 58.9665 23.1935 57.806 22.2911L57.5273 22.045L50.0281 14.5485C47.6937 15.6636 45.1196 16.56 42.382 17.2117L44.7825 26.1647C45.2054 27.7429 44.2688 29.3651 42.6907 29.7879C41.2252 30.1806 39.7218 29.4011 39.176 28.0242L39.0675 27.6961L36.523 18.2012C34.8792 18.3713 33.2002 18.4586 31.4995 18.4586C29.7867 18.4586 28.0958 18.37 26.4406 18.1975L23.8958 27.6961C23.4729 29.2743 21.8508 30.2108 20.2726 29.7879C18.8072 29.3953 17.8949 27.9685 18.1107 26.5031L18.1808 26.1647L20.5819 17.2033C17.8608 16.5531 15.3019 15.6611 12.9798 14.5527L5.4872 22.045C4.3319 23.2003 2.45878 23.2003 1.30348 22.045C0.237054 20.9786 0.155024 19.3005 1.05739 18.14L1.30349 17.8613L7.77381 11.3938C7.57059 11.2376 7.37086 11.079 7.17469 10.9183C5.04616 9.17384 3.37432 7.19189 2.25046 5.03295C1.49604 3.58371 2.05931 1.79729 3.50855 1.04287C4.95779 0.288453 6.7442 0.851717 7.49862 2.30096C8.2343 3.7142 9.38926 5.0834 10.9251 6.34209C15.5939 10.1685 23.1842 12.542 31.4995 12.542C39.8149 12.542 47.4052 10.1685 52.074 6.34204C53.6099 5.08333 54.7649 3.71412 55.5004 2.30099C56.2548 0.851742 58.0413 0.288453 59.4905 1.04285Z" fill="#B5D0D0"/>
</svg>
