<svg width="48" height="32" viewBox="0 0 48 32" fill="none" xmlns="http://www.w3.org/2000/svg">
<path fill-rule="evenodd" clip-rule="evenodd" d="M7.29607 7.8318C11.3565 4.46616 17.262 0.833252 23.9994 0.833252C30.7368 0.833252 36.6423 4.46616 40.7027 7.8318C42.7637 9.5401 44.4261 11.2434 45.5742 12.5196C46.1495 13.1591 46.5989 13.695 46.9079 14.0756C47.0625 14.266 47.1822 14.4178 47.2652 14.5247C47.3067 14.5781 47.3391 14.6203 47.362 14.6505L47.3894 14.6866L47.3978 14.6978L47.4006 14.7016C47.4011 14.7022 47.4026 14.7042 45.6661 15.9999C47.4026 17.2957 47.4022 17.2962 47.4017 17.2968L47.3978 17.3021L47.3894 17.3132L47.362 17.3494C47.3391 17.3795 47.3067 17.4217 47.2652 17.4752C47.1822 17.582 47.0625 17.7338 46.9079 17.9242C46.5989 18.3048 46.1495 18.8408 45.5742 19.4802C44.4261 20.7564 42.7637 22.4597 40.7027 24.168C36.6423 27.5337 30.7368 31.1666 23.9994 31.1666C17.262 31.1666 11.3565 27.5337 7.29607 24.168C5.23513 22.4597 3.57267 20.7564 2.42463 19.4802C1.84935 18.8408 1.39993 18.3048 1.09089 17.9242C0.93629 17.7338 0.816586 17.582 0.733591 17.4752C0.692086 17.4217 0.65974 17.3795 0.636778 17.3494L0.609393 17.3132L0.601026 17.3021L0.598184 17.2983C0.597735 17.2977 0.596238 17.2957 2.33274 15.9999C0.596238 14.7042 0.59665 14.7036 0.597099 14.703L0.601026 14.6978L0.609393 14.6866L0.636778 14.6505C0.65974 14.6203 0.692086 14.5781 0.733591 14.5247C0.816586 14.4178 0.93629 14.266 1.09089 14.0756C1.39993 13.695 1.84935 13.1591 2.42463 12.5196C3.57267 11.2434 5.23513 9.5401 7.29607 7.8318ZM2.33274 15.9999L0.597099 14.703C0.0235464 15.4716 0.0226858 16.527 0.596238 17.2957L2.33274 15.9999ZM5.1325 15.9999C5.28797 16.1797 5.45943 16.3745 5.6462 16.5821C6.69094 17.7434 8.20149 19.2901 10.0614 20.8318C13.8428 23.9662 18.7706 26.8333 23.9994 26.8333C29.2282 26.8333 34.156 23.9662 37.9374 20.8318C39.7973 19.2901 41.3079 17.7434 42.3526 16.5821C42.5394 16.3745 42.7108 16.1797 42.8663 15.9999C42.7108 15.8202 42.5394 15.6254 42.3526 15.4177C41.3079 14.2564 39.7973 12.7097 37.9374 11.168C34.156 8.03368 29.2282 5.16659 23.9994 5.16659C18.7706 5.16659 13.8428 8.03368 10.0614 11.168C8.20149 12.7097 6.69094 14.2564 5.6462 15.4177C5.45943 15.6254 5.28797 15.8202 5.1325 15.9999ZM45.6661 15.9999L47.4017 17.2968C47.9753 16.5282 47.9761 15.4728 47.4026 14.7042L45.6661 15.9999ZM16.4161 15.9999C16.4161 11.8118 19.8113 8.41659 23.9994 8.41659C28.1875 8.41659 31.5827 11.8118 31.5827 15.9999C31.5827 20.1881 28.1875 23.5833 23.9994 23.5833C19.8113 23.5833 16.4161 20.1881 16.4161 15.9999ZM23.9994 12.7499C22.2045 12.7499 20.7494 14.205 20.7494 15.9999C20.7494 17.7948 22.2045 19.2499 23.9994 19.2499C25.7943 19.2499 27.2494 17.7948 27.2494 15.9999C27.2494 14.205 25.7943 12.7499 23.9994 12.7499Z" fill="#B5D0D0"/>
</svg>
