<svg width="80" height="75" viewBox="0 0 80 75" fill="none" xmlns="http://www.w3.org/2000/svg">
<path fill-rule="evenodd" clip-rule="evenodd" d="M37.9675 0.133409C35.1897 0.558645 32.7199 1.8939 30.4514 4.19688C25.7446 8.9751 22.7485 16.9633 22.1369 26.3641C22.0291 28.0221 22.0931 32.0282 22.2535 33.6552C23.1135 42.3815 26.0354 49.6973 30.4444 54.1641C34.6262 58.4007 39.5533 59.4357 44.2518 57.0643C47.8802 55.2331 51.1762 51.1991 53.3618 45.9148C57.0557 36.9835 57.5161 25.4846 54.5668 15.8168C52.2175 8.11567 47.8144 2.44521 42.8157 0.683656C41.6005 0.255458 41.0043 0.153839 39.5386 0.125283C38.7979 0.110852 38.091 0.114498 37.9675 0.133409ZM40.9328 2.25397C41.8896 2.41308 42.7146 2.69713 43.8029 3.24213C49.2203 5.95486 53.4288 13.4549 54.796 22.8325C55.1928 25.5545 55.3283 29.839 55.106 32.6299C54.6953 37.783 53.5072 42.4086 51.5751 46.3765C49.9111 49.7937 47.7075 52.5839 45.4375 54.1481C45.1145 54.3707 44.985 54.4402 45.1495 54.3026C49.5161 50.6531 52.3854 43.8299 53.0499 35.5159C53.1652 34.0737 53.0961 29.6975 52.9365 28.3388C51.9882 20.2629 49.0756 13.9367 44.7959 10.6574C41.5982 8.20719 37.7449 8.02294 34.3956 10.16C32.1864 11.5696 29.9228 14.3763 28.4577 17.5224C26.9454 20.7702 26.0018 24.3342 25.5338 28.5666C25.3495 30.234 25.3498 34.9288 25.5346 36.6398C26.3298 44.0088 28.8891 50.1343 32.6609 53.6969L33.2543 54.2574L32.643 53.7867C27.9972 50.21 24.6126 42.9242 23.6082 34.3387C23.3274 31.9388 23.2433 28.3077 23.4156 26.0224C23.8277 20.5537 25.0893 15.7216 27.1824 11.5952C29.2408 7.53687 31.7817 4.73194 34.7506 3.24054C36.0871 2.56915 37.2127 2.24789 38.7157 2.10868C39.1737 2.0663 40.2145 2.1345 40.9328 2.25397ZM40.4457 10.3761C41.1814 10.4972 42.2039 10.8347 42.8731 11.1773C44.7536 12.1402 46.8696 14.2971 48.2653 16.6739C49.9497 19.5423 51.1774 23.2392 51.7609 27.1996C52.0539 29.1886 52.1073 30.0554 52.1022 32.7438C52.097 35.5748 51.9861 36.9357 51.577 39.1937C50.5393 44.9214 48.0731 49.9406 45.0159 52.5468C44.0487 53.3713 43.8162 53.4938 44.5344 52.8003C50.6119 46.9317 52.1153 33.2776 47.6919 24.1236C45.9463 20.5112 43.5756 18.2057 40.8478 17.4677C39.9578 17.2269 38.5399 17.2268 37.6309 17.4674C36.8441 17.6757 35.5216 18.3324 34.8254 18.8606C31.4268 21.4388 28.9992 26.8468 28.3889 33.1995C28.2558 34.5846 28.2377 37.6181 28.3546 38.9336C28.8788 44.8287 30.9283 49.9079 33.9531 52.8081C34.3094 53.1497 34.4663 53.3316 34.3017 53.2123C31.9043 51.4742 29.852 48.4994 28.4067 44.6677C26.5548 39.7579 25.9104 33.6619 26.6354 27.9091C27.1026 24.2025 28.0715 20.8847 29.5374 17.9718C32.2752 12.5318 36.3415 9.70026 40.4457 10.3761ZM40.3606 19.0079C43.3166 19.535 46.1042 22.5829 47.7409 27.0777C48.2932 28.5944 48.7991 30.7623 49.0454 32.6678C49.233 34.1187 49.2731 37.4138 49.1219 38.9524C48.617 44.0903 46.8803 48.4873 44.328 51.0892C43.998 51.4255 43.5766 51.818 43.3914 51.9613C43.1331 52.1612 43.209 52.0543 43.7176 51.502C47.6158 47.2686 48.9094 38.6836 46.6834 31.8196C45.3842 27.8134 42.9918 24.9767 40.3864 24.3532C39.781 24.2083 38.6256 24.2076 38.0232 24.3519C36.831 24.6372 35.7567 25.3084 34.6952 26.4311C30.2736 31.1078 29.2509 41.3288 32.5138 48.233C33.0356 49.3369 33.7482 50.4822 34.3035 51.1093C34.4953 51.3259 34.6177 51.5031 34.5756 51.5031C34.456 51.5031 33.4556 50.3508 32.94 49.6192C31.3001 47.2925 30.1599 44.2685 29.5979 40.7564C29.3092 38.9517 29.2253 37.5784 29.2759 35.4835C29.3341 33.0735 29.5297 31.5306 30.0372 29.478C31.2054 24.7533 33.5323 21.1359 36.3591 19.6496C37.7065 18.9411 38.9064 18.7487 40.3606 19.0079ZM40.0168 25.9068C43.1706 26.514 45.7742 30.4997 46.5765 35.9485C46.7394 37.0543 46.7992 39.7176 46.6884 40.9184C46.2818 45.3184 44.6684 49.0641 42.3986 50.8776C41.7091 51.4284 41.6574 51.4309 42.1619 50.8891C43.666 49.2736 44.5855 46.7938 44.8252 43.7056C45.0746 40.4949 44.2492 37.0462 42.7369 34.9793C40.8625 32.4174 38.387 32.1146 36.3089 34.1928C34.5605 35.9414 33.5162 39.0773 33.5162 42.5791C33.5162 45.9826 34.4117 48.8088 36.1265 50.8173L36.5461 51.3087L36.1818 51.0452C35.6702 50.675 34.6704 49.5871 34.2269 48.918C33.0119 47.0851 32.1054 44.4339 31.7478 41.6677C31.5749 40.3306 31.5755 37.6296 31.7489 36.2754C32.5218 30.2417 35.5929 25.8805 39.0982 25.8388C39.3909 25.8353 39.8043 25.866 40.0168 25.9068ZM39.7407 34.4989C42.3039 35.0433 44.1641 39.1627 43.8347 43.5648C43.5141 47.8485 41.4118 50.9282 38.9512 50.7188C37.6806 50.6107 36.4598 49.5671 35.6156 47.8676C35.276 47.1837 34.8216 45.7444 34.6773 44.8955C34.3875 43.19 34.459 41.0763 34.8608 39.4652C35.2808 37.7814 35.8589 36.6115 36.7304 35.6823C37.3139 35.0601 37.8584 34.6981 38.4538 34.5364C38.9614 34.3986 39.2313 34.3907 39.7407 34.4989ZM1.16006 64.369L0.972656 64.5593V69.3889V74.2186L1.15632 74.405C1.42161 74.6743 1.81482 74.6595 2.10061 74.3694L2.31928 74.1474V72.3568V70.5661L3.27315 70.5673L4.22701 70.5685L5.41503 72.5066C6.06837 73.5726 6.66373 74.4777 6.73802 74.518C7.11493 74.7228 7.65223 74.4804 7.74208 74.065C7.80231 73.7866 7.73759 73.6603 6.55181 71.7433L5.61224 70.2244L5.77997 70.1107C6.25129 69.7912 6.67974 69.2904 6.94076 68.7539C7.20957 68.2016 7.21951 68.1523 7.21951 67.3759C7.21951 66.5995 7.20957 66.5504 6.94076 65.9983C6.59999 65.2984 6.10226 64.8025 5.40329 64.4663L4.90032 64.2244L3.12389 64.2017L1.34747 64.1788L1.16006 64.369ZM8.99475 64.2373C8.94245 64.2587 8.84983 64.3739 8.78901 64.4934C8.6949 64.6782 8.67836 65.4086 8.67836 69.3902C8.67836 74.1964 8.68255 74.2691 8.9711 74.494C9.06013 74.5634 9.89908 74.5872 12.3213 74.589L15.5527 74.5914L15.761 74.4096C16.0348 74.1705 16.0542 73.6913 15.8006 73.4336C15.6324 73.2628 15.6244 73.2622 12.8284 73.2407L10.025 73.219V71.6647V70.1105H11.9216C13.1166 70.1105 13.9061 70.0793 14.056 70.0263C14.2895 69.9436 14.5138 69.6315 14.5138 69.3889C14.5138 69.1464 14.2895 68.8343 14.056 68.7516C13.9061 68.6986 13.1166 68.6674 11.9216 68.6674H10.025V67.1105V65.5535H12.7147C15.6078 65.5535 15.7108 65.5409 15.9034 65.1628C16.0567 64.8618 16.036 64.6852 15.8163 64.4202L15.6226 64.1865L12.3562 64.1925C10.5597 64.1957 9.04704 64.2159 8.99475 64.2373ZM19.2181 64.2914C18.5933 64.518 17.9717 65.0821 17.6474 65.7169C17.3941 66.2124 17.36 67.2601 17.578 67.8473C17.9109 68.7441 18.7682 69.4002 19.8483 69.5848C20.5358 69.7023 20.9841 70.0119 21.2693 70.5661C21.8433 71.6815 21.1392 73.0516 19.9165 73.1986C19.2781 73.2753 18.8894 73.1184 18.345 72.5641C17.9255 72.1371 17.8422 72.0851 17.5782 72.0851C17.1201 72.0851 16.8222 72.4881 16.9369 72.9523C17.0658 73.4732 18.1132 74.2879 18.9454 74.5142C19.5024 74.6657 20.447 74.5859 20.9687 74.3431C21.9135 73.9036 22.6923 72.8502 22.8144 71.8466C22.9401 70.8144 22.6573 69.9503 21.9465 69.1937C21.4356 68.65 20.8331 68.3323 20.0851 68.2123C19.2599 68.0799 18.7784 67.5817 18.7782 66.8599C18.7778 65.9637 19.7137 65.316 20.55 65.6335C20.6658 65.6775 20.931 65.8996 21.1392 66.1272C21.5989 66.6296 21.8717 66.6777 22.2252 66.3189C22.5121 66.0276 22.512 65.7193 22.2248 65.2955C21.7524 64.5986 20.9458 64.1891 20.0499 64.1916C19.7413 64.1925 19.367 64.2374 19.2181 64.2914ZM27.5463 64.3358C25.783 64.8184 24.3156 66.3688 23.8941 68.1943C23.8085 68.565 23.7848 68.9557 23.808 69.6168C23.8586 71.0619 24.2559 72.0032 25.2494 73.0325C25.8257 73.6296 26.5595 74.1084 27.3067 74.3748C27.7293 74.5254 27.9401 74.5483 28.9152 74.5492C29.9438 74.55 30.0832 74.5333 30.5861 74.3483C31.3835 74.055 31.8992 73.7167 32.5387 73.0675C33.1779 72.4186 33.5111 71.8953 33.8008 71.0853C33.9818 70.579 34.0001 70.4277 34.0013 69.4269C34.0026 68.1599 33.8784 67.6223 33.3876 66.7723C33.0247 66.1436 32.1113 65.2165 31.4927 64.849C30.7094 64.3836 30.1798 64.245 29.0648 64.2137C28.2715 64.1914 27.9916 64.2139 27.5463 64.3358ZM35.2709 64.3729L35.0872 64.5593V69.3145C35.0872 74.1992 35.0912 74.2689 35.38 74.494C35.5951 74.6617 36.0202 74.6109 36.2359 74.3919L36.4324 74.1924L36.4518 70.5517L36.4713 66.911L39.3042 70.6046C40.8623 72.6361 42.2069 74.3643 42.2922 74.4448C42.4681 74.6113 42.9134 74.6385 43.0987 74.494C43.3875 74.269 43.3914 74.1987 43.3914 69.3291V64.5884L43.208 64.3874C42.98 64.1377 42.5271 64.1111 42.2589 64.3316L42.0822 64.4767L42.0448 68.1738L42.0074 71.8707L39.1657 68.1669C37.6029 66.1298 36.2583 64.4009 36.1779 64.3248C35.9585 64.1174 35.4986 64.1417 35.2709 64.3729ZM48.05 64.3574C47.856 64.5704 44.364 73.6839 44.364 73.9771C44.364 74.2962 44.6892 74.5914 45.0408 74.5914C45.4597 74.5914 45.5984 74.3694 46.2662 72.6311L46.8553 71.0978H48.512H50.1687L50.7942 72.7347C51.1984 73.7924 51.4745 74.4105 51.5744 74.4815C51.6594 74.542 51.8531 74.5914 52.0049 74.5914C52.2212 74.5914 52.3227 74.5409 52.4745 74.3577C52.5811 74.2292 52.6685 74.0498 52.6688 73.959C52.6698 73.704 49.1529 64.5508 48.9797 64.3574C48.868 64.2325 48.7429 64.1865 48.5161 64.1865C48.29 64.1865 48.1632 64.2329 48.05 64.3574ZM53.8245 64.3729L53.6408 64.5593V69.3744V74.1895L53.8242 74.3904C54.0778 74.6682 54.514 74.6705 54.7687 74.3955L54.95 74.1995L54.9874 70.5614L55.0248 66.9231L57.8303 70.5848C59.3733 72.5987 60.71 74.3241 60.8007 74.419C61.0569 74.6868 61.5023 74.6581 61.7513 74.3577L61.945 74.1241V69.4161C61.945 64.5804 61.9409 64.5088 61.6522 64.2838C61.4693 64.1413 61.0123 64.1673 60.8124 64.3316L60.6358 64.4767L60.5984 68.1764L60.561 71.876L57.8303 68.3162C56.3284 66.3582 54.9863 64.628 54.8478 64.4713C54.6378 64.2339 54.5471 64.1865 54.302 64.1865C54.0897 64.1865 53.9571 64.2382 53.8245 64.3729ZM66.7713 64.3091C65.4283 64.6387 64.0793 65.7521 63.4334 67.0645C62.7439 68.4651 62.7499 70.3361 63.4482 71.7311C64.0562 72.9458 65.1844 73.9408 66.4338 74.3641C67.1305 74.6001 68.3917 74.6544 69.1581 74.4814C70.2621 74.232 71.521 73.4375 71.521 72.9901C71.521 72.7025 71.3075 72.4043 71.0365 72.3135C70.7444 72.2157 70.7029 72.2306 69.9243 72.7154C69.4371 73.0187 68.6796 73.2243 68.0499 73.2243C66.4616 73.2243 65.0257 72.1954 64.4728 70.661C64.2488 70.0394 64.2488 68.7384 64.4728 68.1169C65.0672 66.4672 66.5656 65.4733 68.3041 65.5753C69.0496 65.619 69.6013 65.81 70.2256 66.2405C70.4649 66.4055 70.7386 66.5406 70.8339 66.5407C71.0399 66.5409 71.2986 66.4109 71.4251 66.2437C71.5447 66.0856 71.5462 65.614 71.4275 65.4654C71.1293 65.092 70.0182 64.4961 69.2718 64.3093C68.6627 64.1569 67.3919 64.1568 66.7713 64.3091ZM72.7115 64.2838C72.4229 64.5088 72.4188 64.5804 72.4188 69.4161V74.1241L72.6125 74.3577L72.8061 74.5914H76.0596H79.3131L79.5409 74.3601C79.7378 74.1601 79.7628 74.0905 79.7247 73.8474C79.6984 73.6796 79.6025 73.4971 79.4869 73.3952C79.2935 73.2246 79.2883 73.2243 76.5293 73.2243H73.7654V71.6674V70.1105H75.662C76.857 70.1105 77.6465 70.0793 77.7964 70.0263C78.1679 69.8948 78.362 69.3936 78.1771 69.043C77.9964 68.7002 77.7811 68.6674 75.7143 68.6674H73.7654V67.1131V65.5589L76.5689 65.5372C79.2851 65.5162 79.3772 65.5107 79.5263 65.3591C79.6111 65.2731 79.6995 65.0832 79.7228 64.9372C79.7571 64.7224 79.7269 64.6255 79.5641 64.4291L79.363 64.1865L76.0966 64.1889C73.647 64.1907 72.8005 64.2144 72.7115 64.2838ZM4.67588 65.6372C5.09947 65.7545 5.70097 66.3947 5.83122 66.8671C6.07383 67.747 5.64104 68.649 4.7881 69.041C4.50067 69.1731 4.29554 69.196 3.38537 69.1974L2.31928 69.1991V67.3763V65.5535L3.34796 65.554C3.91377 65.5542 4.5113 65.5917 4.67588 65.6372ZM29.8851 65.67C30.5386 65.8428 31.0274 66.1388 31.572 66.6918C32.3485 67.48 32.6932 68.3093 32.6932 69.3889C32.6932 71.8945 30.4201 73.6896 27.9851 73.1069C27.3373 72.9519 26.7624 72.6073 26.2219 72.0499C25.6916 71.5031 25.4075 70.9997 25.2524 70.3317C24.9304 68.9445 25.2833 67.6624 26.2541 66.6928C27.053 65.8949 27.81 65.568 28.8808 65.5585C29.191 65.5558 29.643 65.6059 29.8851 65.67ZM49.1089 68.325C49.3795 69.0328 49.6009 69.6387 49.6009 69.6713C49.6009 69.704 49.1127 69.7307 48.5161 69.7307C47.9195 69.7307 47.4313 69.7006 47.4313 69.6637C47.4313 69.6269 47.6373 69.0544 47.889 68.3916C48.1406 67.7288 48.3787 67.101 48.4179 66.9966C48.5098 66.7519 48.5004 66.7336 49.1089 68.325Z" fill="#301718"/>
</svg>
